<svg width="22" height="22" viewBox="0 0 22 22" fill="none" xmlns="http://www.w3.org/2000/svg">
<path d="M4.3999 18.2C4.86107 17.6835 7.02095 15.3067 7.65391 15.3067H14.3463C15.2635 15.3067 17.1359 17.2769 17.5999 17.9714M20.5999 11C20.5999 16.302 16.3018 20.6 10.9999 20.6C5.69797 20.6 1.3999 16.302 1.3999 11C1.3999 5.69809 5.69797 1.40002 10.9999 1.40002C16.3018 1.40002 20.5999 5.69809 20.5999 11ZM14.4387 7.72798C14.4387 5.89647 12.8926 4.40002 11.0002 4.40002C9.10781 4.40002 7.56164 5.89647 7.56164 7.72798C7.56164 9.55949 9.10781 11.0559 11.0002 11.0559C12.8926 11.0559 14.4387 9.55949 14.4387 7.72798Z" stroke="black" stroke-width="2"/>
</svg>
